<?xml version="1.0" encoding="utf-8" standalone="no"?>
<!DOCTYPE svg PUBLIC "-//W3C//DTD SVG 1.1//EN"
  "http://www.w3.org/Graphics/SVG/1.1/DTD/svg11.dtd">
<svg xmlns:xlink="http://www.w3.org/1999/xlink" width="572.4pt" height="300.389969pt" viewBox="0 0 572.4 300.389969" xmlns="http://www.w3.org/2000/svg" version="1.1">
 <metadata>
  <rdf:RDF xmlns:dc="http://purl.org/dc/elements/1.1/" xmlns:cc="http://creativecommons.org/ns#" xmlns:rdf="http://www.w3.org/1999/02/22-rdf-syntax-ns#">
   <cc:Work>
    <dc:type rdf:resource="http://purl.org/dc/dcmitype/StillImage"/>
    <dc:date>2026-08-24T02:36:47.962915</dc:date>
    <dc:format>image/svg+xml</dc:format>
    <dc:creator>
     <cc:Agent>
      <dc:title>Matplotlib v3.10.9, https://matplotlib.org/</dc:title>
     </cc:Agent>
    </dc:creator>
   </cc:Work>
  </rdf:RDF>
 </metadata>
 <defs>
  <style type="text/css">*{stroke-linejoin: round; stroke-linecap: butt}</style>
 </defs>
 <g id="figure_1">
  <g id="patch_1">
   <path d="M 0 300.389969 
L 572.4 300.389969 
L 572.4 0 
L 0 0 
z
" style="fill: #ffffff"/>
  </g>
  <g id="axes_1">
   <g id="patch_2">
    <path d="M 17.723684 157.805489 
L 104.360526 157.805489 
Q 108.276316 157.805489 108.276316 152.483249 
L 108.276316 114.562289 
Q 108.276316 109.240049 104.360526 109.240049 
L 17.723684 109.240049 
Q 13.807895 109.240049 13.807895 114.562289 
L 13.807895 152.483249 
Q 13.807895 157.805489 17.723684 157.805489 
z
" clip-path="url(#pc47b10d3cc)" style="fill: #009e73; fill-opacity: 0.133333; stroke: #009e73; stroke-width: 1.4; stroke-linejoin: miter"/>
   </g>
   <g id="patch_3">
    <path d="M 125.407895 107.909489 
L 212.044737 107.909489 
Q 215.960526 107.909489 215.960526 102.587249 
L 215.960526 64.666289 
Q 215.960526 59.344049 212.044737 59.344049 
L 125.407895 59.344049 
Q 121.492105 59.344049 121.492105 64.666289 
L 121.492105 102.587249 
Q 121.492105 107.909489 125.407895 107.909489 
z
" clip-path="url(#pc47b10d3cc)" style="fill: #009e73; fill-opacity: 0.133333; stroke: #009e73; stroke-width: 1.4; stroke-linejoin: miter"/>
   </g>
   <g id="patch_4">
    <path d="M 125.407895 207.701489 
L 212.044737 207.701489 
Q 215.960526 207.701489 215.960526 202.379249 
L 215.960526 164.458289 
Q 215.960526 159.136049 212.044737 159.136049 
L 125.407895 159.136049 
Q 121.492105 159.136049 121.492105 164.458289 
L 121.492105 202.379249 
Q 121.492105 207.701489 125.407895 207.701489 
z
" clip-path="url(#pc47b10d3cc)" style="fill: #009e73; fill-opacity: 0.133333; stroke: #009e73; stroke-width: 1.4; stroke-linejoin: miter"/>
   </g>
   <g id="patch_5">
    <path d="M 233.092105 107.909489 
L 319.728947 107.909489 
Q 323.644737 107.909489 323.644737 102.587249 
L 323.644737 64.666289 
Q 323.644737 59.344049 319.728947 59.344049 
L 233.092105 59.344049 
Q 229.176316 59.344049 229.176316 64.666289 
L 229.176316 102.587249 
Q 229.176316 107.909489 233.092105 107.909489 
z
" clip-path="url(#pc47b10d3cc)" style="fill: #e69f00; fill-opacity: 0.133333; stroke: #e69f00; stroke-width: 1.4; stroke-linejoin: miter"/>
   </g>
   <g id="patch_6">
    <path d="M 233.092105 207.701489 
L 319.728947 207.701489 
Q 323.644737 207.701489 323.644737 202.379249 
L 323.644737 164.458289 
Q 323.644737 159.136049 319.728947 159.136049 
L 233.092105 159.136049 
Q 229.176316 159.136049 229.176316 164.458289 
L 229.176316 202.379249 
Q 229.176316 207.701489 233.092105 207.701489 
z
" clip-path="url(#pc47b10d3cc)" style="fill: #e69f00; fill-opacity: 0.133333; stroke: #e69f00; stroke-width: 1.4; stroke-linejoin: miter"/>
   </g>
   <g id="patch_7">
    <path d="M 340.776316 107.909489 
L 427.413158 107.909489 
Q 431.328947 107.909489 431.328947 102.587249 
L 431.328947 64.666289 
Q 431.328947 59.344049 427.413158 59.344049 
L 340.776316 59.344049 
Q 336.860526 59.344049 336.860526 64.666289 
L 336.860526 102.587249 
Q 336.860526 107.909489 340.776316 107.909489 
z
" clip-path="url(#pc47b10d3cc)" style="fill: #009e73; fill-opacity: 0.133333; stroke: #009e73; stroke-width: 1.4; stroke-linejoin: miter"/>
   </g>
   <g id="patch_8">
    <path d="M 340.776316 207.701489 
L 427.413158 207.701489 
Q 431.328947 207.701489 431.328947 202.379249 
L 431.328947 164.458289 
Q 431.328947 159.136049 427.413158 159.136049 
L 340.776316 159.136049 
Q 336.860526 159.136049 336.860526 164.458289 
L 336.860526 202.379249 
Q 336.860526 207.701489 340.776316 207.701489 
z
" clip-path="url(#pc47b10d3cc)" style="fill: #009e73; fill-opacity: 0.133333; stroke: #009e73; stroke-width: 1.4; stroke-linejoin: miter"/>
   </g>
   <g id="patch_9">
    <path d="M 448.460526 157.805489 
L 554.676316 157.805489 
Q 558.592105 157.805489 558.592105 152.483249 
L 558.592105 114.562289 
Q 558.592105 109.240049 554.676316 109.240049 
L 448.460526 109.240049 
Q 444.544737 109.240049 444.544737 114.562289 
L 444.544737 152.483249 
Q 444.544737 157.805489 448.460526 157.805489 
z
" clip-path="url(#pc47b10d3cc)" style="fill: #e69f00; fill-opacity: 0.133333; stroke: #e69f00; stroke-width: 1.4; stroke-linejoin: miter"/>
   </g>
   <g id="patch_10">
    <path d="M 105.408724 122.699787 
Q 113.661944 110.235828 121.050991 99.076937 
" clip-path="url(#pc47b10d3cc)" style="fill: none; stroke: #66757f; stroke-width: 1.4; stroke-linecap: round"/>
    <path d="M 116.012248 101.977122 
L 121.050991 99.076937 
L 120.347893 104.848042 
z
" clip-path="url(#pc47b10d3cc)" style="fill: #66757f; stroke: #66757f; stroke-width: 1.4; stroke-linecap: round"/>
   </g>
   <g id="patch_11">
    <path d="M 105.408724 144.34575 
Q 113.661944 156.80971 121.050991 167.9686 
" clip-path="url(#pc47b10d3cc)" style="fill: none; stroke: #66757f; stroke-width: 1.4; stroke-linecap: round"/>
    <path d="M 120.347893 162.197495 
L 121.050991 167.9686 
L 116.012248 165.068415 
z
" clip-path="url(#pc47b10d3cc)" style="fill: #66757f; stroke: #66757f; stroke-width: 1.4; stroke-linecap: round"/>
   </g>
   <g id="patch_12">
    <path d="M 217.783625 83.626769 
Q 222.571144 83.626769 225.793416 83.626769 
" clip-path="url(#pc47b10d3cc)" style="fill: none; stroke: #66757f; stroke-width: 1.4; stroke-linecap: round"/>
    <path d="M 220.593416 81.026769 
L 225.793416 83.626769 
L 220.593416 86.226769 
z
" clip-path="url(#pc47b10d3cc)" style="fill: #66757f; stroke: #66757f; stroke-width: 1.4; stroke-linecap: round"/>
   </g>
   <g id="patch_13">
    <path d="M 217.783625 183.418769 
Q 222.571144 183.418769 225.793416 183.418769 
" clip-path="url(#pc47b10d3cc)" style="fill: none; stroke: #66757f; stroke-width: 1.4; stroke-linecap: round"/>
    <path d="M 220.593416 180.818769 
L 225.793416 183.418769 
L 220.593416 186.018769 
z
" clip-path="url(#pc47b10d3cc)" style="fill: #66757f; stroke: #66757f; stroke-width: 1.4; stroke-linecap: round"/>
   </g>
   <g id="patch_14">
    <path d="M 325.467835 83.626769 
Q 330.255355 83.626769 333.477627 83.626769 
" clip-path="url(#pc47b10d3cc)" style="fill: none; stroke: #66757f; stroke-width: 1.4; stroke-linecap: round"/>
    <path d="M 328.277627 81.026769 
L 333.477627 83.626769 
L 328.277627 86.226769 
z
" clip-path="url(#pc47b10d3cc)" style="fill: #66757f; stroke: #66757f; stroke-width: 1.4; stroke-linecap: round"/>
   </g>
   <g id="patch_15">
    <path d="M 325.467835 183.418769 
Q 330.255355 183.418769 333.477627 183.418769 
" clip-path="url(#pc47b10d3cc)" style="fill: none; stroke: #66757f; stroke-width: 1.4; stroke-linecap: round"/>
    <path d="M 328.277627 180.818769 
L 333.477627 183.418769 
L 328.277627 186.018769 
z
" clip-path="url(#pc47b10d3cc)" style="fill: #66757f; stroke: #66757f; stroke-width: 1.4; stroke-linecap: round"/>
   </g>
   <g id="patch_16">
    <path d="M 430.855546 94.486295 
Q 436.714173 103.586745 441.725527 111.371091 
" clip-path="url(#pc47b10d3cc)" style="fill: none; stroke: #66757f; stroke-width: 1.4; stroke-linecap: round"/>
    <path d="M 441.096906 105.591399 
L 441.725527 111.371091 
L 436.724601 108.406173 
z
" clip-path="url(#pc47b10d3cc)" style="fill: #66757f; stroke: #66757f; stroke-width: 1.4; stroke-linecap: round"/>
   </g>
   <g id="patch_17">
    <path d="M 430.855546 172.559242 
Q 436.714173 163.458792 441.725527 155.674446 
" clip-path="url(#pc47b10d3cc)" style="fill: none; stroke: #66757f; stroke-width: 1.4; stroke-linecap: round"/>
    <path d="M 436.724601 158.639365 
L 441.725527 155.674446 
L 441.096906 161.454138 
z
" clip-path="url(#pc47b10d3cc)" style="fill: #66757f; stroke: #66757f; stroke-width: 1.4; stroke-linecap: round"/>
   </g>
   <g id="text_1">
    <text style="font-weight: 700; font-size: 9px; font-family: 'DejaVu Sans'; fill: #263238" transform="translate(46.292652 130.932034)">Study</text>
    <text style="font-weight: 700; font-size: 9px; font-family: 'DejaVu Sans'; fill: #263238" transform="translate(30.445621 141.080378)">PRJEB52977</text>
   </g>
   <g id="text_2">
    <text style="font-weight: 700; font-size: 9px; font-family: 'DejaVu Sans'; fill: #263238" transform="translate(149.943738 81.071191)">Sample</text>
    <text style="font-weight: 700; font-size: 9px; font-family: 'DejaVu Sans'; fill: #263238" transform="translate(125.920066 91.149222)">SAMEA14435832</text>
   </g>
   <g id="text_3">
    <text style="font-weight: 700; font-size: 9px; font-family: 'DejaVu Sans'; fill: #263238" transform="translate(149.943738 180.863191)">Sample</text>
    <text style="font-weight: 700; font-size: 9px; font-family: 'DejaVu Sans'; fill: #263238" transform="translate(125.920066 190.941222)">SAMEA14435833</text>
   </g>
   <g id="text_4">
    <text style="font-weight: 700; font-size: 9px; font-family: 'DejaVu Sans'; fill: #263238" transform="translate(247.303261 81.071191)">Experiment</text>
    <text style="font-weight: 700; font-size: 9px; font-family: 'DejaVu Sans'; fill: #263238" transform="translate(232.427948 91.149222)">resolve from ENA</text>
   </g>
   <g id="text_5">
    <text style="font-weight: 700; font-size: 9px; font-family: 'DejaVu Sans'; fill: #263238" transform="translate(247.303261 180.863191)">Experiment</text>
    <text style="font-weight: 700; font-size: 9px; font-family: 'DejaVu Sans'; fill: #263238" transform="translate(232.427948 190.941222)">resolve from ENA</text>
   </g>
   <g id="text_6">
    <text style="font-weight: 700; font-size: 9px; font-family: 'DejaVu Sans'; fill: #263238" transform="translate(374.222862 81.071191)">Run</text>
    <text style="font-weight: 700; font-size: 9px; font-family: 'DejaVu Sans'; fill: #263238" transform="translate(352.173565 91.149222)">ERR9765746</text>
   </g>
   <g id="text_7">
    <text style="font-weight: 700; font-size: 9px; font-family: 'DejaVu Sans'; fill: #263238" transform="translate(374.222862 180.863191)">Run</text>
    <text style="font-weight: 700; font-size: 9px; font-family: 'DejaVu Sans'; fill: #263238" transform="translate(352.173565 190.941222)">ERR9765747</text>
   </g>
   <g id="text_8">
    <text style="font-weight: 700; font-size: 9px; font-family: 'DejaVu Sans'; fill: #263238" transform="translate(443.439671 130.932034)">Analysis / derived data</text>
    <text style="font-weight: 700; font-size: 9px; font-family: 'DejaVu Sans'; fill: #263238" transform="translate(439.271546 141.080378)">local or future accession</text>
   </g>
   <g id="text_9">
    <text style="font-weight: 700; font-size: 9px; font-family: 'DejaVu Sans'; fill: #d55e00" transform="translate(184.485777 253.174337)">Never infer an accession</text>
    <text style="font-weight: 700; font-size: 9px; font-family: 'DejaVu Sans'; fill: #d55e00" transform="translate(189.417496 263.252369)">from a naming pattern</text>
   </g>
   <g id="text_10">
    <text style="font-weight: 700; font-size: 9px; font-family: 'DejaVu Sans'; fill: #d55e00" transform="translate(413.567109 253.174337)">Submission IDs are not</text>
    <text style="font-weight: 700; font-size: 9px; font-family: 'DejaVu Sans'; fill: #d55e00" transform="translate(434.121562 263.252369)">publication IDs</text>
   </g>
   <g id="text_11">
    <text style="font-weight: 700; font-size: 13px; font-family: 'DejaVu Sans'; text-anchor: middle" x="286.2" y="17.077969" transform="rotate(-0 286.2 17.077969)">Persistent identifiers follow the archive object graph</text>
   </g>
  </g>
 </g>
 <defs>
  <clipPath id="pc47b10d3cc">
   <rect x="7.2" y="27.077969" width="558" height="266.112"/>
  </clipPath>
 </defs>
</svg>
