<?xml version="1.0" encoding="utf-8" standalone="no"?>
<!DOCTYPE svg PUBLIC "-//W3C//DTD SVG 1.1//EN"
  "http://www.w3.org/Graphics/SVG/1.1/DTD/svg11.dtd">
<svg xmlns:xlink="http://www.w3.org/1999/xlink" width="628.92pt" height="439.419953pt" viewBox="0 0 628.92 439.419953" xmlns="http://www.w3.org/2000/svg" version="1.1">
 <metadata>
  <rdf:RDF xmlns:dc="http://purl.org/dc/elements/1.1/" xmlns:cc="http://creativecommons.org/ns#" xmlns:rdf="http://www.w3.org/1999/02/22-rdf-syntax-ns#">
   <cc:Work>
    <dc:type rdf:resource="http://purl.org/dc/dcmitype/StillImage"/>
    <dc:date>2026-08-24T01:43:25.776949</dc:date>
    <dc:format>image/svg+xml</dc:format>
    <dc:creator>
     <cc:Agent>
      <dc:title>Matplotlib v3.10.9, https://matplotlib.org/</dc:title>
     </cc:Agent>
    </dc:creator>
   </cc:Work>
  </rdf:RDF>
 </metadata>
 <defs>
  <style type="text/css">*{stroke-linejoin: round; stroke-linecap: butt}</style>
 </defs>
 <g id="figure_1">
  <g id="patch_1">
   <path d="M 0 439.419953 
L 628.92 439.419953 
L 628.92 0 
L 0 0 
z
" style="fill: #ffffff"/>
  </g>
  <g id="axes_1">
   <g id="patch_2">
    <path d="M 88.74 381.533813 
L 618.84 381.533813 
L 618.84 26.717812 
L 88.74 26.717812 
z
" style="fill: #ffffff"/>
   </g>
   <g id="patch_3">
    <path d="M 456.56449 381.533813 
L 640.476735 381.533813 
L 640.476735 26.717812 
L 456.56449 26.717812 
z
" clip-path="url(#pd6a6d73531)" style="fill: #fdecec; stroke: #fdecec; stroke-linejoin: miter"/>
   </g>
   <g id="patch_4">
    <path d="M 88.74 194.269812 
L 618.84 194.269812 
L 618.84 26.717812 
L 88.74 26.717812 
z
" clip-path="url(#pd6a6d73531)" style="fill: #fdecec; stroke: #fdecec; stroke-linejoin: miter"/>
   </g>
   <g id="matplotlib.axis_1">
    <g id="xtick_1">
     <g id="line2d_1">
      <path d="M 132.013469 381.533813 
L 132.013469 26.717812 
" clip-path="url(#pd6a6d73531)" style="fill: none; stroke: #edf1f2; stroke-width: 0.8; stroke-linecap: square"/>
     </g>
     <g id="line2d_2">
      <defs>
       <path id="me7a7a297c4" d="M 0 0 
L 0 3.5 
" style="stroke: #000000; stroke-width: 0.8"/>
      </defs>
      <g>
       <use xlink:href="#me7a7a297c4" x="132.013469" y="381.533813" style="stroke: #000000; stroke-width: 0.8"/>
      </g>
     </g>
     <g id="text_1">
      <text style="font-size: 10px; font-family: 'DejaVu Sans'; text-anchor: middle" x="132.013469" y="396.13225" transform="rotate(-0 132.013469 396.13225)">Medium</text>
     </g>
    </g>
    <g id="xtick_2">
     <g id="line2d_3">
      <path d="M 348.380816 381.533813 
L 348.380816 26.717812 
" clip-path="url(#pd6a6d73531)" style="fill: none; stroke: #edf1f2; stroke-width: 0.8; stroke-linecap: square"/>
     </g>
     <g id="line2d_4">
      <g>
       <use xlink:href="#me7a7a297c4" x="348.380816" y="381.533813" style="stroke: #000000; stroke-width: 0.8"/>
      </g>
     </g>
     <g id="text_2">
      <text style="font-size: 10px; font-family: 'DejaVu Sans'; text-anchor: middle" x="348.380816" y="396.13225" transform="rotate(-0 348.380816 396.13225)">High</text>
     </g>
    </g>
    <g id="xtick_3">
     <g id="line2d_5">
      <path d="M 564.748163 381.533813 
L 564.748163 26.717812 
" clip-path="url(#pd6a6d73531)" style="fill: none; stroke: #edf1f2; stroke-width: 0.8; stroke-linecap: square"/>
     </g>
     <g id="line2d_6">
      <g>
       <use xlink:href="#me7a7a297c4" x="564.748163" y="381.533813" style="stroke: #000000; stroke-width: 0.8"/>
      </g>
     </g>
     <g id="text_3">
      <text style="font-size: 10px; font-family: 'DejaVu Sans'; text-anchor: middle" x="564.748163" y="396.13225" transform="rotate(-0 564.748163 396.13225)">Very high</text>
     </g>
    </g>
    <g id="text_4">
     <text style="font-size: 10px; font-family: 'DejaVu Sans'; text-anchor: middle" x="353.79" y="409.810375" transform="rotate(-0 353.79 409.810375)">Likelihood of reviewer challenge</text>
    </g>
   </g>
   <g id="matplotlib.axis_2">
    <g id="ytick_1">
     <g id="line2d_7">
      <path d="M 88.74 292.829813 
L 618.84 292.829813 
" clip-path="url(#pd6a6d73531)" style="fill: none; stroke: #edf1f2; stroke-width: 0.8; stroke-linecap: square"/>
     </g>
     <g id="line2d_8">
      <defs>
       <path id="m703c78f5a3" d="M 0 0 
L -3.5 0 
" style="stroke: #000000; stroke-width: 0.8"/>
      </defs>
      <g>
       <use xlink:href="#m703c78f5a3" x="88.74" y="292.829813" style="stroke: #000000; stroke-width: 0.8"/>
      </g>
     </g>
     <g id="text_5">
      <text style="font-size: 10px; font-family: 'DejaVu Sans'; text-anchor: end" x="81.74" y="296.629031" transform="rotate(-0 81.74 296.629031)">Major</text>
     </g>
    </g>
    <g id="ytick_2">
     <g id="line2d_9">
      <path d="M 88.74 95.709812 
L 618.84 95.709812 
" clip-path="url(#pd6a6d73531)" style="fill: none; stroke: #edf1f2; stroke-width: 0.8; stroke-linecap: square"/>
     </g>
     <g id="line2d_10">
      <g>
       <use xlink:href="#m703c78f5a3" x="88.74" y="95.709812" style="stroke: #000000; stroke-width: 0.8"/>
      </g>
     </g>
     <g id="text_6">
      <text style="font-size: 10px; font-family: 'DejaVu Sans'; text-anchor: end" x="81.74" y="99.509031" transform="rotate(-0 81.74 99.509031)">Critical</text>
     </g>
    </g>
    <g id="text_7">
     <text style="font-size: 10px; font-family: 'DejaVu Sans'; text-anchor: middle" x="40.685313" y="204.125812" transform="rotate(-90 40.685313 204.125812)">Impact if unresolved</text>
    </g>
   </g>
   <g id="patch_5">
    <path d="M 88.74 381.533813 
L 88.74 26.717813 
" style="fill: none; stroke: #000000; stroke-width: 0.8; stroke-linejoin: miter; stroke-linecap: square"/>
   </g>
   <g id="patch_6">
    <path d="M 88.74 381.533813 
L 618.84 381.533813 
" style="fill: none; stroke: #000000; stroke-width: 0.8; stroke-linejoin: miter; stroke-linecap: square"/>
   </g>
   <g id="PathCollection_1">
    <defs>
     <path id="C0_0_25086d8442" d="M 0 6.519202 
C 1.728913 6.519202 3.387246 5.832298 4.609772 4.609772 
C 5.832298 3.387246 6.519202 1.728913 6.519202 -0 
C 6.519202 -1.728913 5.832298 -3.387246 4.609772 -4.609772 
C 3.387246 -5.832298 1.728913 -6.519202 0 -6.519202 
C -1.728913 -6.519202 -3.387246 -5.832298 -4.609772 -4.609772 
C -5.832298 -3.387246 -6.519202 -1.728913 -6.519202 0 
C -6.519202 1.728913 -5.832298 3.387246 -4.609772 4.609772 
C -3.387246 5.832298 -1.728913 6.519202 0 6.519202 
z
"/>
    </defs>
    <g clip-path="url(#pd6a6d73531)">
     <use xlink:href="#C0_0_25086d8442" x="582.057551" y="79.940212" style="fill: #d55e00; stroke: #ffffff; stroke-width: 1.2"/>
    </g>
    <g clip-path="url(#pd6a6d73531)">
     <use xlink:href="#C0_0_25086d8442" x="560.420816" y="99.652212" style="fill: #d55e00; stroke: #ffffff; stroke-width: 1.2"/>
    </g>
    <g clip-path="url(#pd6a6d73531)">
     <use xlink:href="#C0_0_25086d8442" x="538.784082" y="119.364212" style="fill: #d55e00; stroke: #ffffff; stroke-width: 1.2"/>
    </g>
    <g clip-path="url(#pd6a6d73531)">
     <use xlink:href="#C0_0_25086d8442" x="326.744082" y="282.973812" style="fill: #e69f00; stroke: #ffffff; stroke-width: 1.2"/>
    </g>
    <g clip-path="url(#pd6a6d73531)">
     <use xlink:href="#C0_0_25086d8442" x="326.744082" y="79.940212" style="fill: #d55e00; stroke: #ffffff; stroke-width: 1.2"/>
    </g>
    <g clip-path="url(#pd6a6d73531)">
     <use xlink:href="#C0_0_25086d8442" x="132.013469" y="292.829812" style="fill: #e69f00; stroke: #ffffff; stroke-width: 1.2"/>
    </g>
    <g clip-path="url(#pd6a6d73531)">
     <use xlink:href="#C0_0_25086d8442" x="348.380816" y="99.652212" style="fill: #d55e00; stroke: #ffffff; stroke-width: 1.2"/>
    </g>
    <g clip-path="url(#pd6a6d73531)">
     <use xlink:href="#C0_0_25086d8442" x="370.017551" y="119.364212" style="fill: #d55e00; stroke: #ffffff; stroke-width: 1.2"/>
    </g>
    <g clip-path="url(#pd6a6d73531)">
     <use xlink:href="#C0_0_25086d8442" x="359.199184" y="302.685812" style="fill: #e69f00; stroke: #ffffff; stroke-width: 1.2"/>
    </g>
    <g clip-path="url(#pd6a6d73531)">
     <use xlink:href="#C0_0_25086d8442" x="380.835918" y="322.397812" style="fill: #e69f00; stroke: #ffffff; stroke-width: 1.2"/>
    </g>
   </g>
   <g id="patch_7">
    <path d="M 529.827757 54.121326 
Q 555.045273 66.587165 580.262789 79.053003 
" style="fill: none; stroke: #90a4ae; stroke-width: 0.8; stroke-linecap: round"/>
   </g>
   <g id="text_8">
    <g id="patch_8">
     <path d="M 482.528571 53.235962 
L 553.027321 53.235962 
Q 554.227321 53.235962 554.227321 52.035962 
L 554.227321 44.293462 
Q 554.227321 43.093462 553.027321 43.093462 
L 482.528571 43.093462 
Q 481.328571 43.093462 481.328571 44.293462 
L 481.328571 52.035962 
Q 481.328571 53.235962 482.528571 53.235962 
z
" style="fill: #ffffff; opacity: 0.82"/>
    </g>
    <text style="font-size: 8px; font-family: 'DejaVu Sans'; text-anchor: start; fill: #263238" x="482.528571" y="50.372212" transform="rotate(-0 482.528571 50.372212)">Outcome leakage</text>
   </g>
   <g id="patch_9">
    <path d="M 543.275662 95.14058 
Q 550.87922 97.141405 558.482778 99.142231 
" style="fill: none; stroke: #90a4ae; stroke-width: 0.8; stroke-linecap: round"/>
   </g>
   <g id="text_9">
    <g id="patch_10">
     <path d="M 482.528571 94.631162 
L 561.607321 94.631162 
Q 562.807321 94.631162 562.807321 93.431162 
L 562.807321 85.688662 
Q 562.807321 84.488662 561.607321 84.488662 
L 482.528571 84.488662 
Q 481.328571 84.488662 481.328571 85.688662 
L 481.328571 93.431162 
Q 481.328571 94.631162 482.528571 94.631162 
z
" style="fill: #ffffff; opacity: 0.82"/>
    </g>
    <text style="font-size: 8px; font-family: 'DejaVu Sans'; text-anchor: start; fill: #263238" x="482.528571" y="91.767412" transform="rotate(-0 482.528571 91.767412)">Cohort confounding</text>
   </g>
   <g id="patch_11">
    <path d="M 498.954824 142.615732 
Q 518.005238 131.494483 537.055651 120.373235 
" style="fill: none; stroke: #90a4ae; stroke-width: 0.8; stroke-linecap: round"/>
   </g>
   <g id="text_10">
    <g id="patch_12">
     <path d="M 434.927755 153.767162 
L 542.151505 153.767162 
Q 543.351505 153.767162 543.351505 152.567162 
L 543.351505 144.824662 
Q 543.351505 143.624662 542.151505 143.624662 
L 434.927755 143.624662 
Q 433.727755 143.624662 433.727755 144.824662 
L 433.727755 152.567162 
Q 433.727755 153.767162 434.927755 153.767162 
z
" style="fill: #ffffff; opacity: 0.82"/>
    </g>
    <text style="font-size: 8px; font-family: 'DejaVu Sans'; text-anchor: start; fill: #263238" x="434.927755" y="150.903412" transform="rotate(-0 434.927755 150.903412)">Missing external validation</text>
   </g>
   <g id="patch_13">
    <path d="M 225.330424 258.705998 
Q 275.063907 270.606988 324.79739 282.507978 
" style="fill: none; stroke: #90a4ae; stroke-width: 0.8; stroke-linecap: round"/>
   </g>
   <g id="text_11">
    <g id="patch_14">
     <path d="M 157.977551 258.240762 
L 246.410051 258.240762 
Q 247.610051 258.240762 247.610051 257.040762 
L 247.610051 249.298262 
Q 247.610051 248.098262 246.410051 248.098262 
L 157.977551 248.098262 
Q 156.777551 248.098262 156.777551 249.298262 
L 156.777551 257.040762 
Q 156.777551 258.240762 157.977551 258.240762 
z
" style="fill: #ffffff; opacity: 0.82"/>
    </g>
    <text style="font-size: 8px; font-family: 'DejaVu Sans'; text-anchor: start; fill: #263238" x="157.977551" y="255.377012" transform="rotate(-0 157.977551 255.377012)">Compositional artifact</text>
   </g>
   <g id="patch_15">
    <path d="M 292.944152 54.440782 
Q 309.046773 66.588963 325.149395 78.737145 
" style="fill: none; stroke: #90a4ae; stroke-width: 0.8; stroke-linecap: round"/>
   </g>
   <g id="text_12">
    <g id="patch_16">
     <path d="M 244.52449 53.235962 
L 324.72574 53.235962 
Q 325.92574 53.235962 325.92574 52.035962 
L 325.92574 44.293462 
Q 325.92574 43.093462 324.72574 43.093462 
L 244.52449 43.093462 
Q 243.32449 43.093462 243.32449 44.293462 
L 243.32449 52.035962 
Q 243.32449 53.235962 244.52449 53.235962 
z
" style="fill: #ffffff; opacity: 0.82"/>
    </g>
    <text style="font-size: 8px; font-family: 'DejaVu Sans'; text-anchor: start; fill: #263238" x="244.52449" y="50.372212" transform="rotate(-0 244.52449 50.372212)">Incomplete MAG QC</text>
   </g>
   <g id="patch_17">
    <path d="M 186.355319 331.692402 
Q 159.998659 312.843429 133.642 293.994457 
" style="fill: none; stroke: #90a4ae; stroke-width: 0.8; stroke-linecap: round"/>
   </g>
   <g id="text_13">
    <g id="patch_18">
     <path d="M 153.650204 343.002362 
L 236.507704 343.002362 
Q 237.707704 343.002362 237.707704 341.802362 
L 237.707704 334.059862 
Q 237.707704 332.859862 236.507704 332.859862 
L 153.650204 332.859862 
Q 152.450204 332.859862 152.450204 334.059862 
L 152.450204 341.802362 
Q 152.450204 343.002362 153.650204 343.002362 
z
" style="fill: #ffffff; opacity: 0.82"/>
    </g>
    <text style="font-size: 8px; font-family: 'DejaVu Sans'; text-anchor: start; fill: #263238" x="153.650204" y="340.138612" transform="rotate(-0 153.650204 340.138612)">Strain threshold drift</text>
   </g>
   <g id="patch_19">
    <path d="M 323.251999 97.313805 
Q 334.82101 98.39038 346.39002 99.466955 
" style="fill: none; stroke: #90a4ae; stroke-width: 0.8; stroke-linecap: round"/>
   </g>
   <g id="text_14">
    <g id="patch_20">
     <path d="M 244.52449 98.573562 
L 320.06199 98.573562 
Q 321.26199 98.573562 321.26199 97.373562 
L 321.26199 89.631062 
Q 321.26199 88.431062 320.06199 88.431062 
L 244.52449 88.431062 
Q 243.32449 88.431062 243.32449 89.631062 
L 243.32449 97.373562 
Q 243.32449 98.573562 244.52449 98.573562 
z
" style="fill: #ffffff; opacity: 0.82"/>
    </g>
    <text style="font-size: 8px; font-family: 'DejaVu Sans'; text-anchor: start; fill: #263238" x="244.52449" y="95.709812" transform="rotate(-0 244.52449 95.709812)">Virus false positive</text>
   </g>
   <g id="patch_21">
    <path d="M 302.066451 141.045779 
Q 335.090172 130.508702 368.113892 119.971625 
" style="fill: none; stroke: #90a4ae; stroke-width: 0.8; stroke-linecap: round"/>
   </g>
   <g id="text_15">
    <g id="patch_22">
     <path d="M 240.197143 151.795962 
L 328.339643 151.795962 
Q 329.539643 151.795962 329.539643 150.595962 
L 329.539643 142.853462 
Q 329.539643 141.653462 328.339643 141.653462 
L 240.197143 141.653462 
Q 238.997143 141.653462 238.997143 142.853462 
L 238.997143 150.595962 
Q 238.997143 151.795962 240.197143 151.795962 
z
" style="fill: #ffffff; opacity: 0.82"/>
    </g>
    <text style="font-size: 8px; font-family: 'DejaVu Sans'; text-anchor: start; fill: #263238" x="240.197143" y="148.932212" transform="rotate(-0 240.197143 148.932212)">Unsupported host link</text>
   </g>
   <g id="patch_23">
    <path d="M 418.664647 261.355074 
Q 389.753993 281.449068 360.84334 301.543062 
" style="fill: none; stroke: #90a4ae; stroke-width: 0.8; stroke-linecap: round"/>
   </g>
   <g id="text_16">
    <g id="patch_24">
     <path d="M 387.326939 260.211962 
L 467.884439 260.211962 
Q 469.084439 260.211962 469.084439 259.011962 
L 469.084439 251.269462 
Q 469.084439 250.069462 467.884439 250.069462 
L 387.326939 250.069462 
Q 386.126939 250.069462 386.126939 251.269462 
L 386.126939 259.011962 
Q 386.126939 260.211962 387.326939 260.211962 
z
" style="fill: #ffffff; opacity: 0.82"/>
    </g>
    <text style="font-size: 8px; font-family: 'DejaVu Sans'; text-anchor: start; fill: #263238" x="387.326939" y="257.348212" transform="rotate(-0 387.326939 257.348212)">Gap-fill dependence</text>
   </g>
   <g id="patch_25">
    <path d="M 399.710167 331.956068 
Q 391.165837 327.629067 382.621507 323.302066 
" style="fill: none; stroke: #90a4ae; stroke-width: 0.8; stroke-linecap: round"/>
   </g>
   <g id="text_17">
    <g id="patch_26">
     <path d="M 387.326939 343.002362 
L 435.690689 343.002362 
Q 436.890689 343.002362 436.890689 341.802362 
L 436.890689 334.059862 
Q 436.890689 332.859862 435.690689 332.859862 
L 387.326939 332.859862 
Q 386.126939 332.859862 386.126939 334.059862 
L 386.126939 341.802362 
Q 386.126939 343.002362 387.326939 343.002362 
z
" style="fill: #ffffff; opacity: 0.82"/>
    </g>
    <text style="font-size: 8px; font-family: 'DejaVu Sans'; text-anchor: start; fill: #263238" x="387.326939" y="340.138612" transform="rotate(-0 387.326939 340.138612)">Version drift</text>
   </g>
   <g id="text_18">
    <text style="font-weight: 700; font-size: 14px; font-family: 'DejaVu Sans'; text-anchor: start" x="88.74" y="20.717812" transform="rotate(-0 88.74 20.717812)">Design the supplement around predictable reviewer attacks</text>
   </g>
  </g>
  <g id="text_19">
   <text style="font-size: 8.3px; font-family: 'DejaVu Sans'; text-anchor: start; fill: #51636b" x="10.08" y="427.613812" transform="rotate(-0 10.08 427.613812)">Red points can overturn the central claim; gold points mainly narrow interpretation.</text>
  </g>
 </g>
 <defs>
  <clipPath id="pd6a6d73531">
   <rect x="88.74" y="26.717812" width="530.1" height="354.816"/>
  </clipPath>
 </defs>
</svg>
