<?xml version="1.0" encoding="utf-8" standalone="no"?>
<!DOCTYPE svg PUBLIC "-//W3C//DTD SVG 1.1//EN"
  "http://www.w3.org/Graphics/SVG/1.1/DTD/svg11.dtd">
<svg xmlns:xlink="http://www.w3.org/1999/xlink" width="660.96pt" height="420.363953pt" viewBox="0 0 660.96 420.363953" xmlns="http://www.w3.org/2000/svg" version="1.1">
 <metadata>
  <rdf:RDF xmlns:dc="http://purl.org/dc/elements/1.1/" xmlns:cc="http://creativecommons.org/ns#" xmlns:rdf="http://www.w3.org/1999/02/22-rdf-syntax-ns#">
   <cc:Work>
    <dc:type rdf:resource="http://purl.org/dc/dcmitype/StillImage"/>
    <dc:date>2026-08-24T01:43:25.023619</dc:date>
    <dc:format>image/svg+xml</dc:format>
    <dc:creator>
     <cc:Agent>
      <dc:title>Matplotlib v3.10.9, https://matplotlib.org/</dc:title>
     </cc:Agent>
    </dc:creator>
   </cc:Work>
  </rdf:RDF>
 </metadata>
 <defs>
  <style type="text/css">*{stroke-linejoin: round; stroke-linecap: butt}</style>
 </defs>
 <g id="figure_1">
  <g id="patch_1">
   <path d="M -0 420.363953 
L 660.96 420.363953 
L 660.96 0 
L -0 0 
z
" style="fill: #ffffff"/>
  </g>
  <g id="axes_1">
   <g id="PathCollection_1">
    <defs>
     <path id="mf084232d97" d="M 0 7.416198 
C 1.966799 7.416198 3.853307 6.634781 5.244044 5.244044 
C 6.634781 3.853307 7.416198 1.966799 7.416198 0 
C 7.416198 -1.966799 6.634781 -3.853307 5.244044 -5.244044 
C 3.853307 -6.634781 1.966799 -7.416198 0 -7.416198 
C -1.966799 -7.416198 -3.853307 -6.634781 -5.244044 -5.244044 
C -6.634781 -3.853307 -7.416198 -1.966799 -7.416198 0 
C -7.416198 1.966799 -6.634781 3.853307 -5.244044 5.244044 
C -3.853307 6.634781 -1.966799 7.416198 0 7.416198 
z
" style="stroke: #ffffff; stroke-width: 1.3"/>
    </defs>
    <g clip-path="url(#p899419095b)">
     <use xlink:href="#mf084232d97" x="134.73" y="63.661068" style="fill: #0072b2; stroke: #ffffff; stroke-width: 1.3"/>
    </g>
   </g>
   <g id="PathCollection_2">
    <defs>
     <path id="m601f9179c3" d="M 0 7.416198 
C 1.966799 7.416198 3.853307 6.634781 5.244044 5.244044 
C 6.634781 3.853307 7.416198 1.966799 7.416198 0 
C 7.416198 -1.966799 6.634781 -3.853307 5.244044 -5.244044 
C 3.853307 -6.634781 1.966799 -7.416198 0 -7.416198 
C -1.966799 -7.416198 -3.853307 -6.634781 -5.244044 -5.244044 
C -6.634781 -3.853307 -7.416198 -1.966799 -7.416198 0 
C -7.416198 1.966799 -6.634781 3.853307 -5.244044 5.244044 
C -3.853307 6.634781 -1.966799 7.416198 0 7.416198 
z
" style="stroke: #ffffff; stroke-width: 1.3"/>
    </defs>
    <g clip-path="url(#p899419095b)">
     <use xlink:href="#m601f9179c3" x="134.73" y="102.340138" style="fill: #d55e00; stroke: #ffffff; stroke-width: 1.3"/>
    </g>
   </g>
   <g id="PathCollection_3">
    <defs>
     <path id="md4593aabb3" d="M 0 7.416198 
C 1.966799 7.416198 3.853307 6.634781 5.244044 5.244044 
C 6.634781 3.853307 7.416198 1.966799 7.416198 0 
C 7.416198 -1.966799 6.634781 -3.853307 5.244044 -5.244044 
C 3.853307 -6.634781 1.966799 -7.416198 0 -7.416198 
C -1.966799 -7.416198 -3.853307 -6.634781 -5.244044 -5.244044 
C -6.634781 -3.853307 -7.416198 -1.966799 -7.416198 0 
C -7.416198 1.966799 -6.634781 3.853307 -5.244044 5.244044 
C -3.853307 6.634781 -1.966799 7.416198 0 7.416198 
z
" style="stroke: #ffffff; stroke-width: 1.3"/>
    </defs>
    <g clip-path="url(#p899419095b)">
     <use xlink:href="#md4593aabb3" x="134.73" y="141.019208" style="fill: #009e73; stroke: #ffffff; stroke-width: 1.3"/>
    </g>
   </g>
   <g id="PathCollection_4">
    <defs>
     <path id="m56984759de" d="M -0 10.488088 
L 10.488088 0 
L 0 -10.488088 
L -10.488088 -0 
z
" style="stroke: #ffffff; stroke-width: 1.3"/>
    </defs>
    <g clip-path="url(#p899419095b)">
     <use xlink:href="#m56984759de" x="134.73" y="179.698278" style="fill: #cc79a7; stroke: #ffffff; stroke-width: 1.3"/>
    </g>
   </g>
   <g id="PathCollection_5">
    <defs>
     <path id="m290c481b43" d="M 0 7.416198 
C 1.966799 7.416198 3.853307 6.634781 5.244044 5.244044 
C 6.634781 3.853307 7.416198 1.966799 7.416198 0 
C 7.416198 -1.966799 6.634781 -3.853307 5.244044 -5.244044 
C 3.853307 -6.634781 1.966799 -7.416198 0 -7.416198 
C -1.966799 -7.416198 -3.853307 -6.634781 -5.244044 -5.244044 
C -6.634781 -3.853307 -7.416198 -1.966799 -7.416198 0 
C -7.416198 1.966799 -6.634781 3.853307 -5.244044 5.244044 
C -3.853307 6.634781 -1.966799 7.416198 0 7.416198 
z
" style="stroke: #ffffff; stroke-width: 1.3"/>
    </defs>
    <g clip-path="url(#p899419095b)">
     <use xlink:href="#m290c481b43" x="134.73" y="218.377347" style="fill: #2a9d8f; stroke: #ffffff; stroke-width: 1.3"/>
    </g>
   </g>
   <g id="PathCollection_6">
    <defs>
     <path id="mb42ad3edb1" d="M -3.708099 7.416198 
L 0 3.708099 
L 3.708099 7.416198 
L 7.416198 3.708099 
L 3.708099 0 
L 7.416198 -3.708099 
L 3.708099 -7.416198 
L 0 -3.708099 
L -3.708099 -7.416198 
L -7.416198 -3.708099 
L -3.708099 0 
L -7.416198 3.708099 
z
" style="stroke: #ffffff; stroke-width: 1.3"/>
    </defs>
    <g clip-path="url(#p899419095b)">
     <use xlink:href="#mb42ad3edb1" x="134.73" y="257.056417" style="fill: #8d99ae; stroke: #ffffff; stroke-width: 1.3"/>
    </g>
   </g>
   <g id="line2d_1">
    <path d="M 109.62 295.735487 
L 159.84 295.735487 
" clip-path="url(#p899419095b)" style="fill: none; stroke: #264653; stroke-width: 3; stroke-linecap: square"/>
   </g>
   <g id="line2d_2">
    <path d="M 109.62 334.414557 
L 159.84 334.414557 
" clip-path="url(#p899419095b)" style="fill: none; stroke-dasharray: 11.1,4.8; stroke-dashoffset: 0; stroke: #e9c46a; stroke-width: 3"/>
   </g>
   <g id="line2d_3">
    <path d="M 92.88 315.075022 
L 650.88 315.075022 
" clip-path="url(#p899419095b)" style="fill: none; stroke: #edf1f2; stroke-width: 0.8; stroke-linecap: square"/>
   </g>
   <g id="line2d_4">
    <path d="M 92.88 276.395952 
L 650.88 276.395952 
" clip-path="url(#p899419095b)" style="fill: none; stroke: #edf1f2; stroke-width: 0.8; stroke-linecap: square"/>
   </g>
   <g id="line2d_5">
    <path d="M 92.88 237.716882 
L 650.88 237.716882 
" clip-path="url(#p899419095b)" style="fill: none; stroke: #edf1f2; stroke-width: 0.8; stroke-linecap: square"/>
   </g>
   <g id="line2d_6">
    <path d="M 92.88 199.037812 
L 650.88 199.037812 
" clip-path="url(#p899419095b)" style="fill: none; stroke: #edf1f2; stroke-width: 0.8; stroke-linecap: square"/>
   </g>
   <g id="line2d_7">
    <path d="M 92.88 160.358743 
L 650.88 160.358743 
" clip-path="url(#p899419095b)" style="fill: none; stroke: #edf1f2; stroke-width: 0.8; stroke-linecap: square"/>
   </g>
   <g id="line2d_8">
    <path d="M 92.88 121.679673 
L 650.88 121.679673 
" clip-path="url(#p899419095b)" style="fill: none; stroke: #edf1f2; stroke-width: 0.8; stroke-linecap: square"/>
   </g>
   <g id="line2d_9">
    <path d="M 92.88 83.000603 
L 650.88 83.000603 
" clip-path="url(#p899419095b)" style="fill: none; stroke: #edf1f2; stroke-width: 0.8; stroke-linecap: square"/>
   </g>
   <g id="line2d_10">
    <path d="M 92.88 44.321533 
L 650.88 44.321533 
" clip-path="url(#p899419095b)" style="fill: none; stroke: #edf1f2; stroke-width: 0.8; stroke-linecap: square"/>
   </g>
   <g id="text_1">
    <text style="font-weight: 700; font-size: 9.3px; font-family: 'DejaVu Sans'; text-anchor: start" x="179.37" y="66.227287" transform="rotate(-0 179.37 66.227287)">Control</text>
   </g>
   <g id="text_2">
    <text style="font-size: 8.7px; font-family: 'DejaVu Sans'; text-anchor: start; fill: #455a64" x="346.77" y="66.061725" transform="rotate(-0 346.77 66.061725)">Color</text>
   </g>
   <g id="text_3">
    <text style="font-size: 8.5px; font-family: 'DejaVu Sans'; text-anchor: start; fill: #455a64" x="433.26" y="66.006537" transform="rotate(-0 433.26 66.006537)">Reference group only</text>
   </g>
   <g id="text_4">
    <text style="font-weight: 700; font-size: 9.3px; font-family: 'DejaVu Sans'; text-anchor: start" x="179.37" y="104.906357" transform="rotate(-0 179.37 104.906357)">Case</text>
   </g>
   <g id="text_5">
    <text style="font-size: 8.7px; font-family: 'DejaVu Sans'; text-anchor: start; fill: #455a64" x="346.77" y="104.740794" transform="rotate(-0 346.77 104.740794)">Color</text>
   </g>
   <g id="text_6">
    <text style="font-size: 8.5px; font-family: 'DejaVu Sans'; text-anchor: start; fill: #455a64" x="433.26" y="104.685607" transform="rotate(-0 433.26 104.685607)">Case group only</text>
   </g>
   <g id="text_7">
    <text style="font-weight: 700; font-size: 9.3px; font-family: 'DejaVu Sans'; text-anchor: start" x="179.37" y="143.549098" transform="rotate(-0 179.37 143.549098)">Discovery cohort</text>
   </g>
   <g id="text_8">
    <text style="font-size: 8.7px; font-family: 'DejaVu Sans'; text-anchor: start; fill: #455a64" x="346.77" y="143.419864" transform="rotate(-0 346.77 143.419864)">Fill</text>
   </g>
   <g id="text_9">
    <text style="font-size: 8.5px; font-family: 'DejaVu Sans'; text-anchor: start; fill: #455a64" x="433.26" y="143.364677" transform="rotate(-0 433.26 143.364677)">Training/discovery role</text>
   </g>
   <g id="text_10">
    <text style="font-weight: 700; font-size: 9.3px; font-family: 'DejaVu Sans'; text-anchor: start" x="179.37" y="182.264496" transform="rotate(-0 179.37 182.264496)">External cohort</text>
   </g>
   <g id="text_11">
    <text style="font-size: 8.7px; font-family: 'DejaVu Sans'; text-anchor: start; fill: #455a64" x="346.77" y="182.098934" transform="rotate(-0 346.77 182.098934)">Outline</text>
   </g>
   <g id="text_12">
    <text style="font-size: 8.5px; font-family: 'DejaVu Sans'; text-anchor: start; fill: #455a64" x="433.26" y="182.043746" transform="rotate(-0 433.26 182.043746)">Untouched validation role</text>
   </g>
   <g id="text_13">
    <text style="font-weight: 700; font-size: 9.3px; font-family: 'DejaVu Sans'; text-anchor: start" x="179.37" y="220.907238" transform="rotate(-0 179.37 220.907238)">Accepted entity</text>
   </g>
   <g id="text_14">
    <text style="font-size: 8.7px; font-family: 'DejaVu Sans'; text-anchor: start; fill: #455a64" x="346.77" y="220.778004" transform="rotate(-0 346.77 220.778004)">Status</text>
   </g>
   <g id="text_15">
    <text style="font-size: 8.5px; font-family: 'DejaVu Sans'; text-anchor: start; fill: #455a64" x="433.26" y="220.722816" transform="rotate(-0 433.26 220.722816)">Passed prespecified gate</text>
   </g>
   <g id="text_16">
    <text style="font-weight: 700; font-size: 9.3px; font-family: 'DejaVu Sans'; text-anchor: start" x="179.37" y="259.586308" transform="rotate(-0 179.37 259.586308)">Excluded entity</text>
   </g>
   <g id="text_17">
    <text style="font-size: 8.7px; font-family: 'DejaVu Sans'; text-anchor: start; fill: #455a64" x="346.77" y="259.457073" transform="rotate(-0 346.77 259.457073)">Status</text>
   </g>
   <g id="text_18">
    <text style="font-size: 8.5px; font-family: 'DejaVu Sans'; text-anchor: start; fill: #455a64" x="433.26" y="259.401886" transform="rotate(-0 433.26 259.401886)">Excluded with reason</text>
   </g>
   <g id="text_19">
    <text style="font-weight: 700; font-size: 9.3px; font-family: 'DejaVu Sans'; text-anchor: start" x="179.37" y="298.301706" transform="rotate(-0 179.37 298.301706)">95% confidence interval</text>
   </g>
   <g id="text_20">
    <text style="font-size: 8.7px; font-family: 'DejaVu Sans'; text-anchor: start; fill: #455a64" x="346.77" y="298.136143" transform="rotate(-0 346.77 298.136143)">Line</text>
   </g>
   <g id="text_21">
    <text style="font-size: 8.5px; font-family: 'DejaVu Sans'; text-anchor: start; fill: #455a64" x="433.26" y="298.080956" transform="rotate(-0 433.26 298.080956)">Uncertainty only</text>
   </g>
   <g id="text_22">
    <text style="font-weight: 700; font-size: 9.3px; font-family: 'DejaVu Sans'; text-anchor: start" x="179.37" y="336.980775" transform="rotate(-0 179.37 336.980775)">Prespecified threshold</text>
   </g>
   <g id="text_23">
    <text style="font-size: 8.7px; font-family: 'DejaVu Sans'; text-anchor: start; fill: #455a64" x="346.77" y="336.815213" transform="rotate(-0 346.77 336.815213)">Line</text>
   </g>
   <g id="text_24">
    <text style="font-size: 8.5px; font-family: 'DejaVu Sans'; text-anchor: start; fill: #455a64" x="433.26" y="336.760025" transform="rotate(-0 433.26 336.760025)">Decision threshold only</text>
   </g>
   <g id="text_25">
    <text style="font-weight: 700; font-size: 10px; font-family: 'DejaVu Sans'; text-anchor: start; fill: #263238" x="179.37" y="34.651766" transform="rotate(-0 179.37 34.651766)">Meaning</text>
   </g>
   <g id="text_26">
    <text style="font-weight: 700; font-size: 10px; font-family: 'DejaVu Sans'; text-anchor: start; fill: #263238" x="346.77" y="34.651766" transform="rotate(-0 346.77 34.651766)">Channel</text>
   </g>
   <g id="text_27">
    <text style="font-weight: 700; font-size: 10px; font-family: 'DejaVu Sans'; text-anchor: start; fill: #263238" x="433.26" y="34.651766" transform="rotate(-0 433.26 34.651766)">Reserved use</text>
   </g>
   <g id="text_28">
    <text style="font-weight: 700; font-size: 14px; font-family: 'DejaVu Sans'; text-anchor: start" x="92.88" y="20.717812" transform="rotate(-0 92.88 20.717812)">Color encodes biology; shape and outline encode study role</text>
   </g>
  </g>
  <g id="text_29">
   <text style="font-size: 8.3px; font-family: 'DejaVu Sans'; text-anchor: start; fill: #51636b" x="10.08" y="408.557812" transform="rotate(-0 10.08 408.557812)">Keep the same semantic mapping across every panel, supplement, graphical abstract, and slide.</text>
  </g>
 </g>
 <defs>
  <clipPath id="p899419095b">
   <rect x="92.88" y="32.717812" width="558" height="332.64"/>
  </clipPath>
 </defs>
</svg>
